# This file uses centimeters as units for non-parametric coordinates.

mtllib pared.mtl
g default
v 2.490240 0.000000 5.002104
v 12.048079 0.000000 10.447075
v 2.490240 16.000000 5.002104
v 12.048079 16.000000 10.447075
v 2.985237 16.000000 4.133209
v 12.543076 16.000000 9.578180
v 2.985237 0.000000 4.133209
v 12.543076 0.000000 9.578180
vt 0.104670 0.953308
vt 0.538854 0.948026
vt 0.530142 0.346692
vt 0.095958 0.351974
vt 0.504712 0.370617
vt 0.120456 0.373281
vt 0.514356 0.926719
vt 0.130099 0.929383
vt 0.564306 0.669308
vt 0.934954 0.669816
vt 0.565046 0.130184
vt 0.935694 0.130692
vn -0.494997 0.000000 0.868894
vn -0.494997 0.000000 0.868894
vn -0.494997 0.000000 0.868894
vn -0.494997 0.000000 0.868894
vn 0.000000 1.000000 0.000000
vn 0.000000 1.000000 0.000000
vn 0.000000 1.000000 0.000000
vn 0.000000 1.000000 0.000000
vn 0.494997 0.000000 -0.868894
vn 0.494997 0.000000 -0.868894
vn 0.494997 0.000000 -0.868894
vn 0.494997 0.000000 -0.868894
vn 0.000000 -1.000000 0.000000
vn 0.000000 -1.000000 0.000000
vn 0.000000 -1.000000 0.000000
vn 0.000000 -1.000000 0.000000
vn 0.868894 0.000000 0.494997
vn 0.868894 0.000000 0.494997
vn 0.868894 0.000000 0.494997
vn 0.868894 0.000000 0.494997
vn -0.868894 0.000000 -0.494997
vn -0.868894 0.000000 -0.494997
vn -0.868894 0.000000 -0.494997
vn -0.868894 0.000000 -0.494997
s off
g pCube2
usemtl lambert2SG
f 1/11/1 2/12/2 4/10/3 3/9/4
f 3/4/5 4/3/6 6/5/7 5/6/8
f 5/6/9 6/5/10 8/7/11 7/8/12
f 7/8/13 8/7/14 2/2/15 1/1/16
f 2/2/17 8/7/18 6/5/19 4/3/20
f 7/8/21 1/1/22 3/4/23 5/6/24
g default
v -8.500000 0.000000 5.000000
v 2.500000 0.000000 5.000000
v -8.500000 16.000000 5.000000
v 2.500000 16.000000 5.000000
v -8.500000 16.000000 4.000000
v 2.500000 16.000000 4.000000
v -8.500000 0.000000 4.000000
v 2.500000 0.000000 4.000000
vt 0.104670 0.953308
vt 0.538854 0.948026
vt 0.530142 0.346692
vt 0.095958 0.351974
vt 0.504712 0.370617
vt 0.120456 0.373281
vt 0.514356 0.926719
vt 0.130099 0.929383
vt 0.564306 0.669308
vt 0.934954 0.669816
vt 0.565046 0.130184
vt 0.935694 0.130692
vn 0.000000 0.000000 1.000000
vn 0.000000 0.000000 1.000000
vn 0.000000 0.000000 1.000000
vn 0.000000 0.000000 1.000000
vn 0.000000 1.000000 0.000000
vn 0.000000 1.000000 0.000000
vn 0.000000 1.000000 0.000000
vn 0.000000 1.000000 0.000000
vn 0.000000 0.000000 -1.000000
vn 0.000000 0.000000 -1.000000
vn 0.000000 0.000000 -1.000000
vn 0.000000 0.000000 -1.000000
vn 0.000000 -1.000000 0.000000
vn 0.000000 -1.000000 0.000000
vn 0.000000 -1.000000 0.000000
vn 0.000000 -1.000000 0.000000
vn 1.000000 0.000000 0.000000
vn 1.000000 0.000000 0.000000
vn 1.000000 0.000000 0.000000
vn 1.000000 0.000000 0.000000
vn -1.000000 0.000000 0.000000
vn -1.000000 0.000000 0.000000
vn -1.000000 0.000000 0.000000
vn -1.000000 0.000000 0.000000
s off
g pCube1
usemtl lambert2SG
f 9/23/25 10/24/26 12/22/27 11/21/28
f 11/16/29 12/15/30 14/17/31 13/18/32
f 13/18/33 14/17/34 16/19/35 15/20/36
f 15/20/37 16/19/38 10/14/39 9/13/40
f 10/14/41 16/19/42 14/17/43 12/15/44
f 15/20/45 9/13/46 11/16/47 13/18/48
